<?xml version="1.0"?>
<svg xmlns="http://www.w3.org/2000/svg" xmlns:xlink="http://www.w3.org/1999/xlink" version="1.1" id="Capa_1" x="0px" y="0px" viewBox="0 0 511.664 511.664" style="enable-background:new 0 0 511.664 511.664;" xml:space="preserve" width="512px" height="512px" class=""><g><style xmlns="" type="text/css" id="night-mode-pro-style"/><link xmlns="" type="text/css" rel="stylesheet" id="night-mode-pro-link"/><polygon style="fill:#ED6362" points="170.76,273.024 170.424,511.408 255.752,455.68 340.936,511.648 341.272,273.28 " data-original="#ED6362" class=""/><path style="fill:#E95454;" d="M289.24,469.632c-0.384-7.424-7.04-13.008-14.48-13.024l-7.296-0.016  c-7.408-0.224-13.36-6.288-13.36-13.744c0.016-7.584,6.192-13.76,13.792-13.744l20.576,0.032  c6.352,0.016,11.568-5.184,11.488-11.536v-0.976c0.448-6.272-4.576-11.568-10.832-11.584l-61.568-0.096  c-7.504-0.016-14.112-5.584-14.544-12.992c-0.336-7.936,5.936-14.464,13.792-14.448l57.088,0.08  c6.352,0.016,11.568-5.184,11.584-11.552l-0.08-0.8v-0.176c0.096-6.704-5.36-12.192-12.08-12.192l-32.032-0.048  c-7.504-0.016-14.112-5.584-14.544-13.088c-0.336-7.856,5.936-14.464,13.792-14.448l35.376,0.048  c6.624,0.016,11.568-5.536,11.488-12.16c0-0.096,0-0.096,0-0.176c0-0.096,0-0.096,0-0.176c0.096-6.624-4.832-12.192-11.456-12.192  l-38.16-0.048c-7.408-0.016-14.016-5.584-14.448-12.992c-0.336-7.952,5.936-14.464,13.792-14.448l94.144,0.144l-0.352,238.384  l-53.392-35.088C288.616,474.464,289.368,472.192,289.24,469.632z" data-original="#E95454" class=""/><path style="fill:#E19F2D" d="M442.488,186.64c0,16.064-16.224,29.792-20.192,44.608c-4.096,15.328,2.976,35.312-4.8,48.736  c-7.872,13.616-28.784,17.44-39.84,28.48c-11.056,11.056-14.864,31.952-28.48,39.84c-13.424,7.76-33.392,0.688-48.736,4.8  c-14.816,3.968-28.544,20.192-44.608,20.192s-29.792-16.224-44.608-20.192c-15.328-4.096-35.312,2.976-48.736-4.8  c-13.616-7.872-17.44-28.784-28.48-39.84c-11.056-11.056-31.952-14.864-39.84-28.48c-7.76-13.424-0.688-33.392-4.8-48.736  c-3.968-14.816-20.192-28.544-20.192-44.608s16.224-29.792,20.192-44.608c4.096-15.328-2.976-35.312,4.8-48.736  c7.872-13.616,28.784-17.44,39.84-28.48c11.056-11.056,14.864-31.952,28.48-39.84c13.424-7.76,33.392-0.688,48.736-4.8  C226.056,16.224,239.784,0,255.848,0s29.792,16.224,44.608,20.192c15.328,4.096,35.312-2.976,48.736,4.8  c13.616,7.872,17.44,28.784,28.48,39.84c11.056,11.056,31.952,14.864,39.84,28.48c7.76,13.424,0.688,33.392,4.8,48.736  C426.264,156.848,442.488,170.576,442.488,186.64z" data-original="#FDBC4B" class="" data-old_color="#FDBC4B"/><path style="fill:#FFD149" d="M255.848,319.936c-73.504,0-133.296-59.808-133.296-133.296S182.344,53.344,255.848,53.344  s133.296,59.808,133.296,133.296S329.352,319.936,255.848,319.936z" data-original="#FFDB70" class="active-path" data-old_color="#FFDB70"/><path style="opacity:0.6;fill:#FCEF92;enable-background:new    ;" d="M389.144,186.64c0-70.912-55.712-128.912-125.648-132.912  H251.08c-8.192,0-15.504,6.144-16,14.336c-0.384,8.768,6.528,16,15.216,16l73.344,0.016c8.656,0,15.616,7.232,15.152,16  c-0.432,8.208-7.792,14.368-16.016,14.368h-28.432c-8.176,0.24-14.784,6.928-14.784,15.168c0,8.384,6.832,15.216,15.216,15.216  h43.104c7.024,0,12.768,5.76,12.672,12.768v1.072c0.48,6.928-5.072,12.768-12,12.768h-95.184c-8.288,0-15.6,6.144-16.096,14.336  c-0.384,8.768,6.528,16,15.216,16h90.24c7.024,0,12.768,5.76,12.768,12.768l-0.096,0.88v0.192  c0.096,7.408-5.952,13.456-13.36,13.456h-62.56c-8.288,0-15.6,6.144-16.096,14.432c-0.384,8.672,6.528,16,15.216,16h66.256  c7.312,0,12.768,6.144,12.672,13.456c0,0.096,0,0.096,0,0.192s0,0.096,0,0.192c0.096,7.312-5.36,13.456-12.672,13.456h-69.328  c-8.192,0-15.504,6.144-16,14.336c-0.384,8.784,6.528,16,15.216,16h18.288C343.56,304.512,389.144,250.8,389.144,186.64z"/><path style="fill:#EC9922" d="M343.688,158.768h-61.2l-18.912-58.208c-2.432-7.488-13.024-7.488-15.456,0l-18.912,58.208h-61.2  c-7.872,0-11.136,10.064-4.768,14.688l49.52,35.984l-18.912,58.208c-2.432,7.488,6.128,13.712,12.496,9.088l49.504-35.968  l49.52,35.984c6.368,4.624,14.928-1.6,12.496-9.088l-18.912-58.208l49.52-35.984C354.84,168.848,351.56,158.768,343.688,158.768z" data-original="#EC9922" class=""/><circle style="fill:#EC9922" cx="235.688" cy="186.64" r="22.448" data-original="#F49D35" class="" data-old_color="#F49D35"/></g> </svg>
