<?xml version="1.0" encoding="iso-8859-1"?>
<!-- Generator: Adobe Illustrator 19.0.0, SVG Export Plug-In . SVG Version: 6.00 Build 0)  -->
<svg version="1.1" id="Capa_1" xmlns="http://www.w3.org/2000/svg" xmlns:xlink="http://www.w3.org/1999/xlink" x="0px" y="0px"
	 viewBox="0 0 512 512" style="enable-background:new 0 0 512 512;" xml:space="preserve">
<path style="fill:#E95454;" d="M350.176,413.232c50.304,18.928,82.176,0,82.176,0C305.264,370.56,273.328,203.872,268.656,174.64
	C261.648,315.648,350.176,413.232,350.176,413.232z"/>
<path style="fill:#CD494C;" d="M268.656,174.64c-0.448-2.848-0.656-4.448-0.656-4.448C203.84,421.84,376.288,512,376.288,512
	l-4.704-6.128c-22.912-39.84-21.424-92.64-21.424-92.64S261.648,315.648,268.656,174.64z"/>
<path style="fill:#3789C9;" d="M161.824,413.232c-50.304,18.928-82.176,0-82.176,0c127.088-42.672,159.024-209.36,163.696-238.592
	C250.336,315.648,161.824,413.232,161.824,413.232z"/>
<path style="fill:#2B71B8;" d="M243.344,174.64c0.448-2.848,0.656-4.448,0.656-4.448C308.16,421.84,135.712,512,135.712,512
	l4.704-6.128c22.912-39.84,21.424-92.64,21.424-92.64S250.336,315.648,243.344,174.64z"/>
<polygon style="fill:#FFDB70;" points="442.416,186.416 409.424,227.536 417.456,279.648 368.288,298.704 349.232,347.888 
	297.12,339.84 256,372.832 214.88,339.84 162.768,347.888 143.712,298.704 94.528,279.648 102.576,227.536 69.584,186.416 
	102.576,145.296 94.544,93.184 143.712,74.128 162.768,24.96 214.88,32.992 256,0 297.12,32.992 349.232,24.96 368.288,74.128 
	417.472,93.184 409.424,145.296 "/>
<path style="fill:#FFE28F;" d="M284.4,167.44H165.056c-8.112,0-14.848-6.736-14.848-14.832l0.176-1.04v-0.176
	c-0.176-8.64,6.896-15.712,15.536-15.712h87.072c9.664,0,18.128-7.072,18.816-16.736c0.352-10.176-7.6-18.64-17.776-18.64H162.64
	c-8.624,0-14.848-7.072-14.848-15.712c0,0,0,0,0-0.176s0-0.176,0-0.176c0-8.448,6.208-15.696,14.848-15.696h76.368
	c9.488,0,17.952-7.072,18.464-16.56c0.512-10.352-7.6-18.64-17.6-18.64H159.52l-15.808,40.784L94.544,93.184l8.032,52.112
	l-32.992,41.12l32.992,41.12l-8.032,52.112l49.168,19.056l15.808,40.784h92.096c9.664,0,18.112-7.072,18.64-16.56
	c0.512-10.176-7.6-18.64-17.6-18.64H175.76c-10.176,0-18.288-8.448-17.776-18.64c0.512-9.488,9.152-16.736,18.64-16.736h73.44
	c9.488-0.176,17.088-7.936,17.088-17.6s-7.936-17.6-17.6-17.6h-90.368c-8.288,0-15.008-6.736-14.848-14.848v-1.376
	c-0.512-7.936,5.872-14.832,13.984-14.832h125.04c9.664,0,18.112-7.072,18.816-16.56C302.512,175.888,294.576,167.44,284.4,167.44z"
	/>
<path style="fill:#FDBC4B;" d="M256,304.448c-65.088,0-118.032-52.96-118.032-118.032S190.912,68.384,256,68.384
	s118.032,52.96,118.032,118.032S321.088,304.448,256,304.448z"/>
<path style="fill:#F7B343;" d="M235.872,81.152c-0.4,7.84,5.856,14.352,13.552,14.352h59.232c7.84,0,14.096,6.512,13.696,14.352
	c-0.4,7.312-7.04,12.896-14.352,12.896h-56.576c-7.312,0.128-13.168,6.112-13.168,13.568c0,7.44,6.112,13.552,13.552,13.552h69.6
	c6.384,0,11.568,5.184,11.44,11.44v1.072c0.4,6.112-4.512,11.424-10.768,11.424h-96.32c-7.44,0-13.952,5.456-14.496,12.768
	c-0.272,7.84,5.856,14.352,13.696,14.352h91.936c6.256,0,11.44,5.184,11.44,11.44l-0.128,0.8v0.128
	c0.128,6.656-5.312,12.096-11.968,12.096h-67.072c-7.44,0-13.952,5.456-14.496,12.896c-0.272,7.84,5.856,14.352,13.696,14.352h70.4
	c6.64,0,11.44,5.456,11.44,12.096c0,0,0,0,0,0.128s0,0.128,0,0.128c0,6.512-4.784,12.096-11.44,12.096h-58.832
	c-7.312,0-13.824,5.456-14.224,12.768c-0.4,7.984,5.856,14.352,13.552,14.352h1.504c62.864-2.528,113.264-54.32,113.264-117.792
	c0-65.072-52.944-118.032-118.032-118.032c-2.704,0-5.344,0.224-8.016,0.4C241.552,69.776,236.224,74.592,235.872,81.152z"/>
<polygon style="fill:#E5E5E5;" points="256,84.704 279.536,157.136 355.68,157.136 294.08,201.888 317.616,274.32 256,229.552 
	194.384,274.32 217.92,201.888 156.32,157.136 232.464,157.136 "/>
<g>
	<polygon style="fill:#FFFFFF;" points="256,84.704 256,188.08 279.536,157.136 	"/>
	<polygon style="fill:#FFFFFF;" points="256,188.08 355.68,157.136 294.08,201.888 	"/>
	<polygon style="fill:#FFFFFF;" points="256,188.08 317.616,274.32 256,229.552 	"/>
	<polygon style="fill:#FFFFFF;" points="256,188.08 217.92,201.888 194.384,274.32 	"/>
	<polygon style="fill:#FFFFFF;" points="156.32,157.136 232.464,157.136 256,188.08 	"/>
</g>
<g>
</g>
<g>
</g>
<g>
</g>
<g>
</g>
<g>
</g>
<g>
</g>
<g>
</g>
<g>
</g>
<g>
</g>
<g>
</g>
<g>
</g>
<g>
</g>
<g>
</g>
<g>
</g>
<g>
</g>
</svg>
